<svg xmlns="http://www.w3.org/2000/svg" viewBox="0 0 32 32">
  <defs>
    <linearGradient id="bg" x1="0" y1="0" x2="0" y2="1">
      <stop offset="0" stop-color="#C8702A"/>
      <stop offset="1" stop-color="#8B3A1A"/>
    </linearGradient>
    <linearGradient id="liquid" x1="0" y1="0" x2="0" y2="1">
      <stop offset="0" stop-color="#E8B86A"/>
      <stop offset="1" stop-color="#C8893C"/>
    </linearGradient>
  </defs>
  <rect width="32" height="32" rx="8" fill="url(#bg)"/>
  <rect x="13" y="4" width="6" height="2.5" rx="0.8" fill="#FDF6EC" opacity="0.95"/>
  <path d="M13.5 6.5 h5 v3 c1.4 1.1 2.2 2.6 2.2 4.4 v10.3 c0 1.8 -1.6 3.3 -3.6 3.3 h-2.2 c-2 0 -3.6 -1.5 -3.6 -3.3 v-10.3 c0 -1.8 0.8 -3.3 2.2 -4.4 z" fill="#FDF6EC"/>
  <path d="M12.3 15.2 c0.9 -0.4 2.5 -0.4 3.7 0 c1.2 0.4 2.8 0.4 3.7 0 v9.1 c0 1.5 -1.4 2.8 -3 2.8 h-1.4 c-1.6 0 -3 -1.3 -3 -2.8 z" fill="url(#liquid)"/>
</svg>
