<svg xmlns="http://www.w3.org/2000/svg" viewBox="0 0 128 128"><path d="M64 38c-10-8-40-10-44 22-3 28 16 56 30 56 7 0 9-4 14-4s7 4 14 4c14 0 33-28 30-56-4-32-34-30-44-22z" fill="#fff" stroke="#fff" stroke-width="12" stroke-linejoin="round"/><path d="M64 38c-10-8-40-10-44 22-3 28 16 56 30 56 7 0 9-4 14-4s7 4 14 4c14 0 33-28 30-56-4-32-34-30-44-22z" fill="#e6392f" stroke="#2b1a0e" stroke-width="5" stroke-linejoin="round"/><path d="M34 58c2-8 8-12 14-12" stroke="#ffb0a0" stroke-width="6" fill="none" stroke-linecap="round"/><path d="M64 38c0-10 2-18 8-24" stroke="#2b1a0e" stroke-width="5" fill="none" stroke-linecap="round"/><path d="M70 26c6-12 22-14 30-8-6 10-20 14-30 8z" fill="#5fae3e" stroke="#2b1a0e" stroke-width="4" stroke-linejoin="round"/><path d="M104 22 l6 -6 M108 32 h8 M98 14 v-8" stroke="#ffd23f" stroke-width="4" stroke-linecap="round"/></svg>
