<svg xmlns="http://www.w3.org/2000/svg" viewBox="0 0 128 128"><path d="M64 6l12 20 22-8-2 24 22 8-16 18 14 18-22 6 2 24-22-8-10 20-12-20-22 8 2-24-22-6 14-18L6 50l22-8-2-24 22 8z" fill="#fff" stroke="#fff" stroke-width="10" stroke-linejoin="round"/><path d="M64 6l12 20 22-8-2 24 22 8-16 18 14 18-22 6 2 24-22-8-10 20-12-20-22 8 2-24-22-6 14-18L6 50l22-8-2-24 22 8z" fill="#ff5a8a" stroke="#2b1a0e" stroke-width="4.5" stroke-linejoin="round"/><text x="64" y="74" text-anchor="middle" font-family="'Arial Black',Arial,sans-serif" font-weight="900" font-size="28" fill="#fff" stroke="#2b1a0e" stroke-width="2" paint-order="stroke" transform="rotate(-10 64 70)">NEW!</text></svg>
